<?xml version="1.0" encoding="utf-8"?>
<!-- Generator: Adobe Illustrator 16.0.0, SVG Export Plug-In . SVG Version: 6.00 Build 0)  -->
<!DOCTYPE svg PUBLIC "-//W3C//DTD SVG 1.1//EN" "http://www.w3.org/Graphics/SVG/1.1/DTD/svg11.dtd">
<svg version="1.1" id="Calque_1" xmlns="http://www.w3.org/2000/svg" xmlns:xlink="http://www.w3.org/1999/xlink" x="0px" y="0px"
	 width="60px" height="60px" viewBox="0 0 60 60" enable-background="new 0 0 60 60" xml:space="preserve">
<path fill="#4C6085" d="M30.001,2C14.537,2,2,14.536,2,30.001C2,45.461,14.537,58,30.001,58C45.464,58,58,45.461,58,30.001
	C58,14.536,45.464,2,30.001,2 M30.001,25.234c-2.633,0-4.767,2.132-4.767,4.767c0,2.629,2.134,4.764,4.767,4.764
	c2.631,0,4.764-2.135,4.764-4.764C34.765,27.367,32.632,25.234,30.001,25.234"/>
<path fill="#FFFFFF" d="M36.741,25.663c0.01,0.016,0.02,0.031,0.03,0.047c0.525,0.872,1.349,1.586,2.354,2.043
	c0.019,0.008,0.036,0.017,0.054,0.025c0.16,0.07,0.323,0.134,0.491,0.191c0.632,0.217,1.319,0.34,2.041,0.34
	c2.854,0,5.197-1.86,5.53-4.259l-0.834,0.724c-1.713,1.486-4.489,1.486-6.203,0c-1.714-1.485-1.714-3.895,0-5.38l0.834-0.724
	c-2.765,0.289-4.91,2.321-4.91,4.797c0,0.626,0.142,1.222,0.393,1.77C36.587,25.383,36.661,25.525,36.741,25.663 M35.211,30.983
	l2.561-2.324c-0.813-0.465-1.509-1.069-2.046-1.774l-2.719,2.253c0.185,0.12,0.361,0.247,0.523,0.388L35.211,30.983z M26.104,34.673
	l-10.808,8.771c-0.432,0.375-0.7,0.894-0.7,1.467c0,1.146,1.071,2.075,2.393,2.075c0.661,0,1.259-0.232,1.692-0.607l10.029-9.296
	l-1.945-1.688C26.512,35.178,26.293,34.935,26.104,34.673 M16.988,45.604c-0.441,0-0.797-0.31-0.797-0.692
	c0-0.382,0.356-0.691,0.797-0.691c0.44,0,0.797,0.31,0.797,0.691C17.785,45.294,17.428,45.604,16.988,45.604 M18.882,20.5l-3.36-1.7
	l-0.726,0.63l1.96,2.914L18.882,20.5z M45.961,42.263L32.402,30.504c-0.577-0.501-1.375-0.811-2.255-0.811
	c-1.762,0-3.19,1.239-3.19,2.767c0,0.765,0.356,1.456,0.935,1.957l13.558,11.759c0.576,0.501,1.374,0.811,2.256,0.811
	c1.762,0,3.189-1.238,3.189-2.767C46.895,43.456,46.539,42.764,45.961,42.263z M43.705,44.911c-0.22,0-0.42-0.077-0.564-0.202
	l-7.975-6.918c-0.146-0.125-0.233-0.298-0.233-0.488c0-0.383,0.355-0.692,0.797-0.692c0.22,0,0.419,0.078,0.564,0.203l7.975,6.917
	c0.146,0.126,0.233,0.299,0.233,0.489C44.502,44.602,44.146,44.911,43.705,44.911"/>
<path fill="#F46036" d="M45.961,42.263L45.961,42.263L32.402,30.504c-0.577-0.501-1.375-0.811-2.255-0.811
	c-1.762,0-3.19,1.239-3.19,2.767c0,0.765,0.356,1.456,0.935,1.957l13.558,11.759c0.576,0.501,1.374,0.811,2.256,0.811
	c1.762,0,3.189-1.238,3.189-2.767C46.895,43.456,46.539,42.764,45.961,42.263 M43.705,44.911c-0.22,0-0.42-0.077-0.564-0.202
	l-7.975-6.918c-0.146-0.125-0.233-0.298-0.233-0.488c0-0.383,0.355-0.692,0.797-0.692c0.22,0,0.419,0.078,0.564,0.203l7.975,6.917
	c0.146,0.126,0.233,0.299,0.233,0.489C44.502,44.602,44.146,44.911,43.705,44.911"/>
<path fill="#23C9FF" d="M46.407,24.774c-0.794,0.688-1.891,1.114-3.102,1.114c-2.423,0-4.386-1.703-4.386-3.805
	c0-1.051,0.491-2.002,1.284-2.689l0.843-0.731c-2.769,0.285-4.919,2.325-4.919,4.805c0,2.675,2.5,4.842,5.583,4.842
	c2.857,0,5.211-1.863,5.54-4.267L46.407,24.774z"/>
<g opacity="0.102">
	<g>
		<defs>
			<rect id="SVGID_1_" x="24.166" y="34.673" width="4.543" height="4.013"/>
		</defs>
		<clipPath id="SVGID_2_">
			<use xlink:href="#SVGID_1_"  overflow="visible"/>
		</clipPath>
		<path clip-path="url(#SVGID_2_)" d="M28.153,36.61v-0.01l-0.786-0.682h-0.012v0.691H28.153z M26.558,37.303h0.798V36.61h-0.798
			V37.303z M25.761,36.61h0.797v-0.691h-0.797V36.61z M26.558,38.686H27l0.355-0.333v-0.358h-0.798V38.686z M24.549,35.919
			l-0.384,0.308v0.384h0.797v-0.691H24.549z M26.558,35.194c-0.165-0.164-0.319-0.336-0.454-0.521l-0.343,0.275v0.279h0.797V35.194z
			 M27.355,37.994h0.382l0.416-0.39v-0.302h-0.797V37.994z M25.761,37.994h0.797v-0.691h-0.797V37.994z M28.165,36.61h-0.012v0.692
			h0.322l0.233-0.22L28.165,36.61z M24.963,37.303h0.798V36.61h-0.798V37.303z M25.761,35.228h-0.348l-0.45,0.36v0.331h0.798V35.228
			z M27.355,35.919v-0.01l-0.592-0.514c-0.061-0.054-0.114-0.112-0.172-0.168h-0.034v0.691H27.355z"/>
	</g>
</g>
<g opacity="0.851">
	<g>
		<defs>
			<rect id="SVGID_3_" x="13" y="17.242" width="35.889" height="31.128"/>
		</defs>
		<clipPath id="SVGID_4_">
			<use xlink:href="#SVGID_3_"  overflow="visible"/>
		</clipPath>
		<path clip-path="url(#SVGID_4_)" d="M36.379,31.995l2.934-2.665c0.751,0.23,1.556,0.363,2.398,0.363
			c3.965,0,7.178-2.787,7.178-6.226c0-0.961-0.258-1.866-0.705-2.679l-3.186,2.763c-0.434,0.375-1.031,0.607-1.692,0.607
			c-1.321,0-2.393-0.929-2.393-2.075c0-0.573,0.269-1.092,0.7-1.467l3.186-2.763c-0.936-0.389-1.98-0.612-3.088-0.612
			c-3.964,0-7.178,2.787-7.178,6.226c0,0.73,0.152,1.429,0.42,2.08l-3.537,2.915c-0.404-0.098-0.828-0.153-1.269-0.153
			c-1.005,0-1.936,0.27-2.706,0.729l-7.937-7.122l1.237-1.072c0.145-0.125,0.233-0.298,0.233-0.488c0-0.256-0.161-0.476-0.397-0.596
			l0.001-0.002l-4.785-2.422l-0.001,0.003c-0.118-0.061-0.253-0.097-0.4-0.097c-0.22,0-0.419,0.077-0.563,0.203l-1.595,1.383
			C13.089,18.954,13,19.127,13,19.317c0,0.127,0.042,0.245,0.112,0.348l-0.003,0.001l2.792,4.15l0.002-0.001
			c0.139,0.204,0.393,0.344,0.687,0.344c0.22,0,0.419-0.077,0.564-0.202l1.224-1.063l7.92,7.107
			c-0.585,0.688-0.936,1.537-0.936,2.458c0,0.287,0.034,0.566,0.097,0.836l-11.292,9.17C13.446,43.092,13,43.957,13,44.911
			c0,1.91,1.785,3.459,3.988,3.459c1.101,0,2.098-0.387,2.82-1.013l10.037-9.29l10.476,9.087c0.867,0.751,2.063,1.216,3.385,1.216
			c2.642,0,4.785-1.858,4.785-4.15c0-1.146-0.536-2.184-1.402-2.936L36.379,31.995z M16.756,22.344l-1.96-2.914l0.726-0.63l3.36,1.7
			L16.756,22.344z M41.038,18.671l-0.834,0.724c-1.714,1.485-1.714,3.894,0,5.38s4.49,1.486,6.203,0l0.834-0.724
			c-0.333,2.398-2.677,4.259-5.53,4.259c-0.722,0-1.409-0.123-2.041-0.34c-0.168-0.058-0.331-0.121-0.491-0.191
			c-0.018-0.009-0.035-0.018-0.054-0.025c-1.005-0.457-1.828-1.171-2.354-2.043c-0.011-0.016-0.021-0.031-0.03-0.047
			c-0.08-0.138-0.154-0.28-0.221-0.426c-0.251-0.548-0.393-1.144-0.393-1.77C36.128,20.992,38.273,18.96,41.038,18.671
			 M35.722,26.88c0.539,0.709,1.237,1.315,2.055,1.782l-2.551,2.333l-1.695-1.47c-0.167-0.146-0.351-0.275-0.54-0.398L35.722,26.88z
			 M18.68,46.379c-0.433,0.375-1.031,0.607-1.692,0.607c-1.322,0-2.393-0.929-2.393-2.075c0-0.573,0.268-1.092,0.7-1.467
			l10.813-8.765c0.188,0.259,0.406,0.5,0.655,0.716l1.939,1.682L18.68,46.379z M43.705,46.986c-0.882,0-1.68-0.31-2.256-0.811
			l-10.751-9.324l-0.905-0.786l-1.902-1.648c-0.237-0.206-0.434-0.444-0.587-0.706c-0.052-0.089-0.098-0.181-0.139-0.274
			c-0.005-0.013-0.01-0.024-0.015-0.036c-0.034-0.082-0.063-0.165-0.088-0.249c-0.006-0.021-0.014-0.043-0.019-0.063
			c-0.021-0.078-0.037-0.158-0.05-0.239c-0.004-0.024-0.01-0.049-0.013-0.074c-0.014-0.103-0.022-0.208-0.022-0.314
			c0-0.075,0.006-0.149,0.014-0.224c0.006-0.063,0.015-0.126,0.025-0.188c0.219-1.266,1.423-2.249,2.916-2.344
			c0.078-0.005,0.156-0.011,0.236-0.011c0.138,0,0.273,0.01,0.408,0.025c0.031,0.003,0.063,0.008,0.094,0.013
			c0.117,0.016,0.234,0.036,0.348,0.064c0.013,0.003,0.025,0.005,0.037,0.008c0.275,0.069,0.533,0.17,0.772,0.296
			c0.216,0.115,0.419,0.249,0.597,0.404L34.127,32l1.149,0.996l10.685,9.267c0.578,0.501,0.934,1.193,0.934,1.957
			C46.895,45.748,45.467,46.986,43.705,46.986 M44.269,43.73l-7.975-6.917c-0.146-0.125-0.345-0.203-0.564-0.203
			c-0.441,0-0.797,0.31-0.797,0.692c0,0.19,0.088,0.363,0.233,0.488l7.975,6.918c0.145,0.125,0.345,0.202,0.564,0.202
			c0.441,0,0.797-0.31,0.797-0.691C44.502,44.029,44.414,43.856,44.269,43.73z M16.988,44.22c-0.441,0-0.797,0.31-0.797,0.691
			c0,0.383,0.356,0.692,0.797,0.692c0.44,0,0.797-0.31,0.797-0.692C17.785,44.529,17.428,44.22,16.988,44.22"/>
	</g>
</g>
<g opacity="0.851">
	<g>
		<defs>
			<rect id="SVGID_5_" width="60" height="60"/>
		</defs>
		<clipPath id="SVGID_6_">
			<use xlink:href="#SVGID_5_"  overflow="visible"/>
		</clipPath>
		<path clip-path="url(#SVGID_6_)" fill="#32322C" d="M30.001,0C13.432,0,0,13.431,0,30.001C0,46.57,13.432,60,30.001,60
			C46.568,60,60,46.57,60,30.001C60,13.431,46.568,0,30.001,0 M30.001,57.648c-15.27,0-27.648-12.38-27.648-27.647
			c0-15.27,12.379-27.648,27.648-27.648c15.268,0,27.646,12.379,27.646,27.648C57.647,45.269,45.269,57.648,30.001,57.648"/>
	</g>
</g>
<g opacity="0.851">
	<g>
		<defs>
			<rect id="SVGID_7_" x="3.5" y="3.193" width="53" height="53"/>
		</defs>
		<clipPath id="SVGID_8_">
			<use xlink:href="#SVGID_7_"  overflow="visible"/>
		</clipPath>
		<path clip-path="url(#SVGID_8_)" fill="#FFFFFF" d="M30,3.193c-14.635,0-26.5,11.865-26.5,26.502
			c0,14.636,11.865,26.498,26.5,26.498c14.635,0,26.5-11.862,26.5-26.498C56.5,15.058,44.635,3.193,30,3.193 M30,54.118
			c-13.487,0-24.421-10.936-24.421-24.423C5.578,16.206,16.512,5.272,30,5.272c13.487,0,24.422,10.934,24.422,24.423
			C54.422,43.183,43.486,54.118,30,54.118"/>
	</g>
</g>
</svg>
