<?xml version="1.0" encoding="utf-8"?>
<!DOCTYPE svg PUBLIC "-//W3C//DTD SVG 1.1//EN" "http://www.w3.org/Graphics/SVG/1.1/DTD/svg11.dtd">
<svg version="1.1" id="Calque_1" xmlns="http://www.w3.org/2000/svg" xmlns:xlink="http://www.w3.org/1999/xlink" x="0px" y="0px"
	 width="60px" height="60px" viewBox="0 0 60 60" enable-background="new 0 0 60 60" xml:space="preserve">
<path fill="#4C6085" d="M30.001,2C14.537,2,2,14.536,2,30.001C2,45.461,14.537,58,30.001,58C45.464,58,58,45.461,58,30.001
	C58,14.536,45.464,2,30.001,2 M30.001,25.234c-2.633,0-4.767,2.132-4.767,4.767c0,2.629,2.134,4.764,4.767,4.764
	c2.631,0,4.764-2.135,4.764-4.764C34.765,27.367,32.632,25.234,30.001,25.234"/>
<g opacity="0.851">
	<g>
		<defs>
			<rect id="SVGID_1_" width="60" height="60"/>
		</defs>
		<clipPath id="SVGID_2_">
			<use xlink:href="#SVGID_1_"  overflow="visible"/>
		</clipPath>
		<path clip-path="url(#SVGID_2_)" fill="#32322C" d="M30.001,0C13.432,0,0,13.431,0,30.001C0,46.57,13.432,60,30.001,60
			C46.568,60,60,46.57,60,30.001C60,13.431,46.568,0,30.001,0 M30.001,57.648c-15.27,0-27.648-12.38-27.648-27.647
			c0-15.27,12.379-27.648,27.648-27.648c15.268,0,27.646,12.379,27.646,27.648C57.647,45.269,45.269,57.648,30.001,57.648"/>
	</g>
</g>
<g>
	<g>
		<defs>
			<rect id="SVGID_3_" x="3.5" y="3.193" width="53" height="53"/>
		</defs>
		<clipPath id="SVGID_4_">
			<use xlink:href="#SVGID_3_"  overflow="visible"/>
		</clipPath>
		<path clip-path="url(#SVGID_4_)" fill="#FFFFFF" d="M30,3.193c-14.635,0-26.5,11.865-26.5,26.502
			c0,14.636,11.865,26.498,26.5,26.498c14.635,0,26.5-11.862,26.5-26.498C56.5,15.058,44.635,3.193,30,3.193 M30,54.118
			c-13.487,0-24.421-10.936-24.421-24.423C5.578,16.206,16.512,5.272,30,5.272c13.487,0,24.422,10.934,24.422,24.423
			C54.422,43.183,43.486,54.118,30,54.118"/>
	</g>
</g>
<path fill="#FFFFFF" d="M31.639,33.457L30.08,31.76l-1.04,2.83L31.639,33.457z M30.774,30.479l2.04,2.222l11.648-12.69l-2.039-2.221
	L30.774,30.479z M46.361,14.581l-1.574,1.712l1.049,1.142l1.572-1.713L46.361,14.581z M33.284,34.236
	c-0.075,0.078-0.161,0.146-0.263,0.182v0.004l-4.938,2.152c-0.003,0-0.006,0.002-0.008,0.004l-0.009,0.004v-0.004
	c-0.063,0.023-0.129,0.037-0.198,0.037c-0.366,0-0.661-0.322-0.661-0.721c0-0.076,0.013-0.146,0.033-0.217h-0.002l0.015-0.039
	c0.004-0.014,0.009-0.027,0.014-0.041l1.954-5.323l0.003,0.001c0.031-0.11,0.093-0.205,0.167-0.285l-0.007-0.008l7.799-8.501H17.946
	c-0.73,0-1.322,0.645-1.322,1.439v23.755c0,0.797,0.591,1.439,1.322,1.439h21.806c0.729,0,1.322-0.643,1.322-1.439V25.758
	l-7.783,8.484L33.284,34.236z"/>
<polygon fill="#F46036" points="42.424,17.79 40.246,20.16 42.287,22.381 44.463,20.011 "/>
<path fill="#F7D54A" d="M27.207,35.895c0-0.006,0.001-0.012,0.001-0.016H21.25v0.719h6.479
	C27.431,36.529,27.207,36.24,27.207,35.895 M21.25,38.758h15.2v-0.719h-15.2V38.758z M21.25,40.918h12.555v-0.721H21.25V40.918z"/>
<g opacity="0.149">
	<g>
		<defs>
			<rect id="SVGID_5_" x="33.064" y="27.153" width="2.803" height="3.055"/>
		</defs>
		<clipPath id="SVGID_6_">
			<use xlink:href="#SVGID_5_"  overflow="visible"/>
		</clipPath>
		<path clip-path="url(#SVGID_6_)" d="M33.689,27.325l-0.468,0.51l0.311,0.336l0.466-0.508L33.689,27.325z M33.998,29.699
			l0.467,0.509l0.469-0.509l-0.469-0.51L33.998,29.699z M33.064,28.68l0.468,0.509l0.466-0.509l-0.466-0.51L33.064,28.68z
			 M34.934,27.663l-0.469-0.51l-0.467,0.51l0.467,0.508L34.934,27.663z M34.934,29.699l0.328,0.357l0.469-0.508l-0.332-0.359
			L34.934,29.699z M35.867,28.68l-0.469-0.51l-0.465,0.51l0.465,0.509L35.867,28.68z M34.465,28.17l-0.467,0.51l0.467,0.509
			l0.469-0.509L34.465,28.17z"/>
	</g>
</g>
<g opacity="0.149">
	<g>
		<defs>
			<rect id="SVGID_7_" x="17.945" y="22.921" width="21.807" height="23.755"/>
		</defs>
		<clipPath id="SVGID_8_">
			<use xlink:href="#SVGID_7_"  overflow="visible"/>
		</clipPath>
		<path clip-path="url(#SVGID_8_)" d="M39.09,27.205v18.752H18.606V23.641h17.267l0.664-0.72H17.945v23.755h21.807V26.485
			L39.09,27.205z M33.598,31.846l0.469-0.51l-2.039-2.221l-0.467,0.508L33.598,31.846z"/>
	</g>
</g>
<g opacity="0.851">
	<g>
		<clipPath id="SVGID_10_">
			<use xlink:href="#SVGID_9_"  overflow="visible"/>
		</clipPath>
		<path clip-path="url(#SVGID_10_)" d="M48.82,16.233c0.119-0.13,0.193-0.31,0.193-0.509c0-0.199-0.074-0.379-0.193-0.51
			l-1.984-2.161c-0.117-0.13-0.283-0.211-0.467-0.211c-0.182,0-0.346,0.081-0.467,0.211L43.75,15.4
			c-0.453-0.15-0.961-0.038-1.318,0.352c-0.012,0.012-0.02,0.026-0.031,0.039l-3.898,4.25H17.946c-1.46,0-2.643,1.289-2.643,2.879
			v23.755c0,1.592,1.183,2.881,2.643,2.881h21.806c1.461,0,2.643-1.289,2.643-2.881V24.318l3.916-4.267
			c0.012-0.012,0.023-0.021,0.033-0.033c0.357-0.39,0.463-0.946,0.324-1.438L48.82,16.233L48.82,16.233z M42.434,17.793l2.039,2.223
			L32.824,32.715l-2.039-2.223L42.434,17.793z M31.648,33.473l-2.598,1.133l1.04-2.834L31.648,33.473z M41.074,46.676
			c0,0.797-0.594,1.439-1.322,1.439H17.946c-0.73,0-1.322-0.643-1.322-1.439V22.921c0-0.795,0.591-1.439,1.322-1.439h19.236
			l-7.799,8.501l0.007,0.008c-0.073,0.08-0.135,0.175-0.167,0.285l-0.003-0.001l-1.954,5.323c-0.005,0.014-0.01,0.027-0.014,0.041
			l-0.015,0.039h0.002c-0.02,0.07-0.033,0.141-0.033,0.217c0,0.398,0.295,0.721,0.661,0.721c0.069,0,0.135-0.016,0.198-0.037v0.004
			l0.009-0.004c0.002-0.002,0.005-0.004,0.008-0.004l4.938-2.152v-0.004c0.102-0.037,0.188-0.104,0.263-0.182l0.007,0.006
			l7.783-8.484V46.676z M45.848,17.438l-1.051-1.143l1.572-1.713l1.049,1.142L45.848,17.438z"/>
	</g>
</g>
<path fill="#444444" d="M24.343,34.949c2.037,0,3.694-1.684,3.694-3.75c0-2.068-1.657-3.75-3.694-3.75s-3.695,1.682-3.695,3.75
	C20.648,33.268,22.307,34.949,24.343,34.949z M24.343,28.308c1.571,0,2.85,1.297,2.85,2.893c0,1.594-1.278,2.891-2.85,2.891
	c-1.571,0-2.85-1.297-2.85-2.891C21.493,29.604,22.772,28.308,24.343,28.308z"/>
<path fill="#23C9FF" d="M23.506,32.723c0.083,0.084,0.19,0.125,0.299,0.125c0.108,0,0.216-0.041,0.299-0.125l2.009-2.039
	c0.165-0.168,0.165-0.44,0-0.607c-0.166-0.168-0.432-0.168-0.598,0l-1.71,1.736l-0.737-0.748c-0.166-0.168-0.432-0.168-0.597,0
	c-0.166,0.166-0.166,0.438,0,0.605L23.506,32.723z"/>
</svg>
